<svg xmlns="http://www.w3.org/2000/svg" xmlns:xlink="http://www.w3.org/1999/xlink" width="56.735" height="57.607" viewBox="0 0 56.735 57.607">
  <defs>
    <filter id="Ellipse_78" x="16.735" y="0" width="40" height="40" filterUnits="userSpaceOnUse">
      <feOffset input="SourceAlpha"/>
      <feGaussianBlur stdDeviation="3" result="blur"/>
      <feFlood flood-color="#6342e8" flood-opacity="0.416"/>
      <feComposite operator="in" in2="blur"/>
      <feComposite in="SourceGraphic"/>
    </filter>
    <filter id="_3" x="23.735" y="4" width="27" height="37" filterUnits="userSpaceOnUse">
      <feOffset dy="3" input="SourceAlpha"/>
      <feGaussianBlur stdDeviation="3" result="blur-2"/>
      <feFlood flood-opacity="0.161"/>
      <feComposite operator="in" in2="blur-2"/>
      <feComposite in="SourceGraphic"/>
    </filter>
  </defs>
  <g id="Group_1679" data-name="Group 1679" transform="translate(1 9)">
    <g id="Group_1677" data-name="Group 1677" transform="translate(0 12)">
      <path id="Path_2424" data-name="Path 2424" d="M2,2H5.1A3.294,3.294,0,0,1,8.374,5.561L6.9,23.293a4.977,4.977,0,0,0,4.967,5.395H30.824a5.122,5.122,0,0,0,5-4.647l.961-13.353a4.937,4.937,0,0,0-5-5.359H8.8" transform="translate(-2 -2)" fill="none" stroke="#292d32" stroke-linecap="round" stroke-linejoin="round" stroke-miterlimit="10" stroke-width="2"/>
      <path id="Path_2425" data-name="Path 2425" d="M17.225,23.951A2.225,2.225,0,1,0,15,21.725,2.225,2.225,0,0,0,17.225,23.951Z" transform="translate(8.145 11.656)" fill="none" stroke="#292d32" stroke-linecap="round" stroke-linejoin="round" stroke-miterlimit="10" stroke-width="2"/>
      <path id="Path_2426" data-name="Path 2426" d="M9.225,23.951A2.225,2.225,0,1,0,7,21.725,2.225,2.225,0,0,0,9.225,23.951Z" transform="translate(1.902 11.656)" fill="none" stroke="#292d32" stroke-linecap="round" stroke-linejoin="round" stroke-miterlimit="10" stroke-width="2"/>
      <path id="Path_2427" data-name="Path 2427" d="M9,8H30.364" transform="translate(3.463 2.682)" fill="none" stroke="#292d32" stroke-linecap="round" stroke-linejoin="round" stroke-miterlimit="10" stroke-width="2"/>
    </g>
    <g transform="matrix(1, 0, 0, 1, -1, -9)" filter="url(#Ellipse_78)">
      <circle id="Ellipse_78-2" data-name="Ellipse 78" cx="11" cy="11" r="11" transform="translate(25.74 9)" fill="#6342e8"/>
    </g>
    <g transform="matrix(1, 0, 0, 1, -1, -9)" filter="url(#_3)">
      <text id="_3-2" data-name="3" transform="translate(32.74 25)" fill="#fff" font-size="14" font-family="SegoeUI-Bold, Segoe UI" font-weight="700" letter-spacing="0.014em"><tspan x="0" y="0">3</tspan></text>
    </g>
  </g>
</svg>
