<svg xmlns="http://www.w3.org/2000/svg" xmlns:xlink="http://www.w3.org/1999/xlink" width="1766.299" height="78.476" viewBox="0 0 1766.299 78.476">
  <defs>
    <filter id="Path_2017" x="1588" y="14.484" width="73.255" height="51.322" filterUnits="userSpaceOnUse">
      <feOffset input="SourceAlpha"/>
      <feGaussianBlur stdDeviation="3" result="blur"/>
      <feFlood flood-color="#6342e8" flood-opacity="0.18"/>
      <feComposite operator="in" in2="blur"/>
      <feComposite in="SourceGraphic"/>
    </filter>
    <filter id="Path_2018" x="1592.093" y="31.881" width="33.837" height="33.837" filterUnits="userSpaceOnUse">
      <feOffset input="SourceAlpha"/>
      <feGaussianBlur stdDeviation="3" result="blur-2"/>
      <feFlood flood-color="#6342e8" flood-opacity="0.18"/>
      <feComposite operator="in" in2="blur-2"/>
      <feComposite in="SourceGraphic"/>
    </filter>
    <filter id="Path_2019" x="1603.358" y="1" width="42.54" height="32.452" filterUnits="userSpaceOnUse">
      <feOffset dy="3" input="SourceAlpha"/>
      <feGaussianBlur stdDeviation="3" result="blur-3"/>
      <feFlood flood-color="#6342e8" flood-opacity="0.18"/>
      <feComposite operator="in" in2="blur-3"/>
      <feComposite in="SourceGraphic"/>
    </filter>
    <filter id="Ellipse_40" x="1621.491" y="54.602" width="23.874" height="23.874" filterUnits="userSpaceOnUse">
      <feOffset dy="3" input="SourceAlpha"/>
      <feGaussianBlur stdDeviation="3" result="blur-4"/>
      <feFlood flood-color="#6342e8" flood-opacity="0.18"/>
      <feComposite operator="in" in2="blur-4"/>
      <feComposite in="SourceGraphic"/>
    </filter>
    <filter id="Ellipse_41" x="1605.843" y="54.602" width="23.874" height="23.874" filterUnits="userSpaceOnUse">
      <feOffset dy="3" input="SourceAlpha"/>
      <feGaussianBlur stdDeviation="3" result="blur-5"/>
      <feFlood flood-color="#6342e8" flood-opacity="0.18"/>
      <feComposite operator="in" in2="blur-5"/>
      <feComposite in="SourceGraphic"/>
    </filter>
    <filter id="Oxygen" x="1657.299" y="9" width="109" height="51" filterUnits="userSpaceOnUse">
      <feOffset input="SourceAlpha"/>
      <feGaussianBlur stdDeviation="3" result="blur-6"/>
      <feFlood flood-color="#6342e8" flood-opacity="0.18"/>
      <feComposite operator="in" in2="blur-6"/>
      <feComposite in="SourceGraphic"/>
    </filter>
    <filter id="جستجو_در_محصولات_اکسیژن_" x="972.6" y="9" width="310" height="48" filterUnits="userSpaceOnUse">
      <feOffset input="SourceAlpha"/>
      <feGaussianBlur stdDeviation="3" result="blur-7"/>
      <feFlood flood-color="#f8f8f8" flood-opacity="0.22"/>
      <feComposite operator="in" in2="blur-7"/>
      <feComposite in="SourceGraphic"/>
    </filter>
    <filter id="Ellipse_78" x="104.735" y="4" width="40" height="40" filterUnits="userSpaceOnUse">
      <feOffset input="SourceAlpha"/>
      <feGaussianBlur stdDeviation="3" result="blur-8"/>
      <feFlood flood-color="#6342e8" flood-opacity="0.416"/>
      <feComposite operator="in" in2="blur-8"/>
      <feComposite in="SourceGraphic"/>
    </filter>
    <filter id="_3" x="111.735" y="8" width="27" height="37" filterUnits="userSpaceOnUse">
      <feOffset dy="3" input="SourceAlpha"/>
      <feGaussianBlur stdDeviation="3" result="blur-9"/>
      <feFlood flood-opacity="0.161"/>
      <feComposite operator="in" in2="blur-9"/>
      <feComposite in="SourceGraphic"/>
    </filter>
  </defs>
  <g id="Group_1681" data-name="Group 1681" transform="translate(-77 -78)">
    <g id="Group_1264" data-name="Group 1264" transform="translate(-72.401 36.524)">
      <g id="Group_1163" data-name="Group 1163" transform="translate(1746.401 48.476)">
        <g transform="matrix(1, 0, 0, 1, -1597, -7)" filter="url(#Path_2017)">
          <path id="Path_2017-2" data-name="Path 2017" d="M138.005,100.268H93.688a5.528,5.528,0,0,0-5.393,6.467h0a9.66,9.66,0,0,0,12.024,7.862l6.567-1.787a4.831,4.831,0,0,1,5.87,5.962l-.34,1.289a10.713,10.713,0,0,0,10.22,13.529H134.36a5.493,5.493,0,0,0,5.393-4.641l3.645-22.215A5.527,5.527,0,0,0,138.005,100.268Z" transform="translate(1508.78 -76.78)" fill="#6342e8"/>
        </g>
        <g transform="matrix(1, 0, 0, 1, -1597, -7)" filter="url(#Path_2018)">
          <path id="Path_2018-2" data-name="Path 2018" d="M108.151,130.743,97.077,133.71a2.38,2.38,0,0,0-.432,4.436l3.978,1.95a2.383,2.383,0,0,1,1.089,1.089l1.95,3.978a2.38,2.38,0,0,0,4.436-.432l2.967-11.074A2.38,2.38,0,0,0,108.151,130.743Z" transform="translate(1505.78 -89.78)" fill="#6342e8"/>
        </g>
        <g id="Group_1160" data-name="Group 1160" transform="translate(15.358)">
          <g transform="matrix(1, 0, 0, 1, -1612.36, -7)" filter="url(#Path_2019)">
            <path id="Path_2019-2" data-name="Path 2019" d="M138.017,85.126a2.115,2.115,0,0,1-2.115-2.115v-.066a8.04,8.04,0,1,0-16.08,0v.066a2.115,2.115,0,1,1-4.23,0v-.066a12.27,12.27,0,1,1,24.54,0v.066A2.115,2.115,0,0,1,138.017,85.126Z" transform="translate(1496.77 -63.67)" fill="#6342e8"/>
          </g>
        </g>
        <g id="Group_1161" data-name="Group 1161" transform="translate(17.843 53.602)">
          <g transform="matrix(1, 0, 0, 1, -1614.84, -60.6)" filter="url(#Ellipse_40)">
            <circle id="Ellipse_40-2" data-name="Ellipse 40" cx="2.937" cy="2.937" r="2.937" transform="translate(1630.49 60.6)" fill="#6342e8"/>
          </g>
          <g transform="matrix(1, 0, 0, 1, -1614.84, -60.6)" filter="url(#Ellipse_41)">
            <circle id="Ellipse_41-2" data-name="Ellipse 41" cx="2.937" cy="2.937" r="2.937" transform="translate(1614.84 60.6)" fill="#6342e8"/>
          </g>
        </g>
      </g>
      <g transform="matrix(1, 0, 0, 1, 149.4, 41.48)" filter="url(#Oxygen)">
        <text id="Oxygen-2" data-name="Oxygen" transform="translate(1666.3 45)" fill="#6342e8" font-size="25" font-family="SegoeUI-Bold, Segoe UI" font-weight="700"><tspan x="0" y="0">Oxygen</tspan></text>
      </g>
    </g>
    <g id="Group_1678" data-name="Group 1678" transform="translate(0 15)">
      <g id="Group_1675" data-name="Group 1675">
        <rect id="Rectangle_485" data-name="Rectangle 485" width="916" height="74" rx="14.5" transform="translate(502 63)" fill="#f2f3f2"/>
        <g id="Group_1674" data-name="Group 1674">
          <g transform="matrix(1, 0, 0, 1, 77, 63)" filter="url(#جستجو_در_محصولات_اکسیژن_)">
            <text id="جستجو_در_محصولات_اکسیژن_2" data-name="جستجو در محصولات اکسیژن … " transform="translate(981.6 42)" fill="#7c7c7c" font-size="22" font-family="SegoeUI-Bold, Segoe UI" font-weight="700"><tspan x="0" y="0">جستجو در محصولات اکسیژن</tspan><tspan y="0" xml:space="preserve"> … </tspan></text>
          </g>
          <g id="Group_1673" data-name="Group 1673" transform="translate(1360.59 85)">
            <path id="Path_2418" data-name="Path 2418" d="M26.67,14.335A12.335,12.335,0,1,1,14.335,2" fill="none" stroke="#292d32" stroke-linecap="round" stroke-linejoin="round" stroke-width="2"/>
            <path id="Path_2419" data-name="Path 2419" d="M18.967,21.42c.726,2.193,2.385,2.412,3.659.493,1.165-1.754.4-3.193-1.713-3.193A1.926,1.926,0,0,0,18.967,21.42Z" transform="translate(6.236 6.196)" fill="none" stroke="#292d32" stroke-linecap="round" stroke-linejoin="round" stroke-width="2"/>
            <path id="Path_2420" data-name="Path 2420" d="M14,5h8.223" transform="translate(4.447 1.112)" fill="none" stroke="#292d32" stroke-linecap="round" stroke-linejoin="round" stroke-width="2"/>
            <path id="Path_2421" data-name="Path 2421" d="M14,8h4.112" transform="translate(4.447 2.223)" fill="none" stroke="#292d32" stroke-linecap="round" stroke-linejoin="round" stroke-width="2"/>
          </g>
        </g>
      </g>
    </g>
    <g id="Group_1680" data-name="Group 1680" transform="translate(16 21)">
      <g id="Group_1676" data-name="Group 1676" transform="translate(62 82)">
        <path id="Path_2422" data-name="Path 2422" d="M15.9,19.8A8.9,8.9,0,1,0,7,10.9,8.9,8.9,0,0,0,15.9,19.8Z" transform="translate(-0.608 -2)" fill="none" stroke="#292d32" stroke-linecap="round" stroke-linejoin="round" stroke-width="2"/>
        <path id="Path_2423" data-name="Path 2423" d="M34,27.463C34,20.573,27.142,15,18.7,15S3.41,20.573,3.41,27.463" transform="translate(-3.41 8.145)" fill="none" stroke="#292d32" stroke-linecap="round" stroke-linejoin="round" stroke-width="2"/>
      </g>
      <path id="Path_2428" data-name="Path 2428" d="M20.907,34.63a3.882,3.882,0,0,1-2.208,0C13.537,32.868,2,25.515,2,13.052A9.923,9.923,0,0,1,11.9,3.1a9.819,9.819,0,0,1,7.9,3.988,9.875,9.875,0,0,1,17.8,5.964C37.607,25.515,26.071,32.868,20.907,34.63Z" transform="translate(251.5 82.4)" fill="none" stroke="#292d32" stroke-linecap="round" stroke-linejoin="round" stroke-width="2"/>
      <g id="Group_1679" data-name="Group 1679" transform="translate(150 70)">
        <g id="Group_1677" data-name="Group 1677" transform="translate(0 12)">
          <path id="Path_2424" data-name="Path 2424" d="M2,2H5.1A3.294,3.294,0,0,1,8.374,5.561L6.9,23.293a4.977,4.977,0,0,0,4.967,5.395H30.824a5.122,5.122,0,0,0,5-4.647l.961-13.353a4.937,4.937,0,0,0-5-5.359H8.8" transform="translate(-2 -2)" fill="none" stroke="#292d32" stroke-linecap="round" stroke-linejoin="round" stroke-miterlimit="10" stroke-width="2"/>
          <path id="Path_2425" data-name="Path 2425" d="M17.225,23.951A2.225,2.225,0,1,0,15,21.725,2.225,2.225,0,0,0,17.225,23.951Z" transform="translate(8.145 11.656)" fill="none" stroke="#292d32" stroke-linecap="round" stroke-linejoin="round" stroke-miterlimit="10" stroke-width="2"/>
          <path id="Path_2426" data-name="Path 2426" d="M9.225,23.951A2.225,2.225,0,1,0,7,21.725,2.225,2.225,0,0,0,9.225,23.951Z" transform="translate(1.902 11.656)" fill="none" stroke="#292d32" stroke-linecap="round" stroke-linejoin="round" stroke-miterlimit="10" stroke-width="2"/>
          <path id="Path_2427" data-name="Path 2427" d="M9,8H30.364" transform="translate(3.463 2.682)" fill="none" stroke="#292d32" stroke-linecap="round" stroke-linejoin="round" stroke-miterlimit="10" stroke-width="2"/>
        </g>
        <g transform="matrix(1, 0, 0, 1, -89, -13)" filter="url(#Ellipse_78)">
          <circle id="Ellipse_78-2" data-name="Ellipse 78" cx="11" cy="11" r="11" transform="translate(113.74 13)" fill="#6342e8"/>
        </g>
        <g transform="matrix(1, 0, 0, 1, -89, -13)" filter="url(#_3)">
          <text id="_3-2" data-name="3" transform="translate(120.74 29)" fill="#fff" font-size="14" font-family="SegoeUI-Bold, Segoe UI" font-weight="700" letter-spacing="0.014em"><tspan x="0" y="0">3</tspan></text>
        </g>
      </g>
    </g>
  </g>
</svg>
