<svg xmlns="http://www.w3.org/2000/svg" xmlns:xlink="http://www.w3.org/1999/xlink" width="178.299" height="77.476" viewBox="0 0 178.299 77.476">
  <defs>
    <filter id="Path_2017" x="0" y="13.484" width="73.255" height="51.322" filterUnits="userSpaceOnUse">
      <feOffset input="SourceAlpha"/>
      <feGaussianBlur stdDeviation="3" result="blur"/>
      <feFlood flood-color="#6342e8" flood-opacity="0.18"/>
      <feComposite operator="in" in2="blur"/>
      <feComposite in="SourceGraphic"/>
    </filter>
    <filter id="Path_2018" x="4.093" y="30.881" width="33.837" height="33.837" filterUnits="userSpaceOnUse">
      <feOffset input="SourceAlpha"/>
      <feGaussianBlur stdDeviation="3" result="blur-2"/>
      <feFlood flood-color="#6342e8" flood-opacity="0.18"/>
      <feComposite operator="in" in2="blur-2"/>
      <feComposite in="SourceGraphic"/>
    </filter>
    <filter id="Path_2019" x="15.358" y="0" width="42.54" height="32.452" filterUnits="userSpaceOnUse">
      <feOffset dy="3" input="SourceAlpha"/>
      <feGaussianBlur stdDeviation="3" result="blur-3"/>
      <feFlood flood-color="#6342e8" flood-opacity="0.18"/>
      <feComposite operator="in" in2="blur-3"/>
      <feComposite in="SourceGraphic"/>
    </filter>
    <filter id="Ellipse_40" x="33.491" y="53.602" width="23.874" height="23.874" filterUnits="userSpaceOnUse">
      <feOffset dy="3" input="SourceAlpha"/>
      <feGaussianBlur stdDeviation="3" result="blur-4"/>
      <feFlood flood-color="#6342e8" flood-opacity="0.18"/>
      <feComposite operator="in" in2="blur-4"/>
      <feComposite in="SourceGraphic"/>
    </filter>
    <filter id="Ellipse_41" x="17.843" y="53.602" width="23.874" height="23.874" filterUnits="userSpaceOnUse">
      <feOffset dy="3" input="SourceAlpha"/>
      <feGaussianBlur stdDeviation="3" result="blur-5"/>
      <feFlood flood-color="#6342e8" flood-opacity="0.18"/>
      <feComposite operator="in" in2="blur-5"/>
      <feComposite in="SourceGraphic"/>
    </filter>
    <filter id="Oxygen" x="69.299" y="8" width="109" height="51" filterUnits="userSpaceOnUse">
      <feOffset input="SourceAlpha"/>
      <feGaussianBlur stdDeviation="3" result="blur-6"/>
      <feFlood flood-color="#6342e8" flood-opacity="0.18"/>
      <feComposite operator="in" in2="blur-6"/>
      <feComposite in="SourceGraphic"/>
    </filter>
  </defs>
  <g id="Group_1264" data-name="Group 1264" transform="translate(-1737.401 -42.476)">
    <g id="Group_1163" data-name="Group 1163" transform="translate(1746.401 48.476)">
      <g transform="matrix(1, 0, 0, 1, -9, -6)" filter="url(#Path_2017)">
        <path id="Path_2017-2" data-name="Path 2017" d="M138.005,100.268H93.688a5.528,5.528,0,0,0-5.393,6.467h0a9.66,9.66,0,0,0,12.024,7.862l6.567-1.787a4.831,4.831,0,0,1,5.87,5.962l-.34,1.289a10.713,10.713,0,0,0,10.22,13.529H134.36a5.493,5.493,0,0,0,5.393-4.641l3.645-22.215A5.527,5.527,0,0,0,138.005,100.268Z" transform="translate(-79.22 -77.78)" fill="#6342e8"/>
      </g>
      <g transform="matrix(1, 0, 0, 1, -9, -6)" filter="url(#Path_2018)">
        <path id="Path_2018-2" data-name="Path 2018" d="M108.151,130.743,97.077,133.71a2.38,2.38,0,0,0-.432,4.436l3.978,1.95a2.383,2.383,0,0,1,1.089,1.089l1.95,3.978a2.38,2.38,0,0,0,4.436-.432l2.967-11.074A2.38,2.38,0,0,0,108.151,130.743Z" transform="translate(-82.22 -90.78)" fill="#6342e8"/>
      </g>
      <g id="Group_1160" data-name="Group 1160" transform="translate(15.358)">
        <g transform="matrix(1, 0, 0, 1, -24.36, -6)" filter="url(#Path_2019)">
          <path id="Path_2019-2" data-name="Path 2019" d="M138.017,85.126a2.115,2.115,0,0,1-2.115-2.115v-.066a8.04,8.04,0,1,0-16.08,0v.066a2.115,2.115,0,1,1-4.23,0v-.066a12.27,12.27,0,1,1,24.54,0v.066A2.115,2.115,0,0,1,138.017,85.126Z" transform="translate(-91.23 -64.67)" fill="#6342e8"/>
        </g>
      </g>
      <g id="Group_1161" data-name="Group 1161" transform="translate(17.843 53.602)">
        <g transform="matrix(1, 0, 0, 1, -26.84, -59.6)" filter="url(#Ellipse_40)">
          <circle id="Ellipse_40-2" data-name="Ellipse 40" cx="2.937" cy="2.937" r="2.937" transform="translate(42.49 59.6)" fill="#6342e8"/>
        </g>
        <g transform="matrix(1, 0, 0, 1, -26.84, -59.6)" filter="url(#Ellipse_41)">
          <circle id="Ellipse_41-2" data-name="Ellipse 41" cx="2.937" cy="2.937" r="2.937" transform="translate(26.84 59.6)" fill="#6342e8"/>
        </g>
      </g>
    </g>
    <g transform="matrix(1, 0, 0, 1, 1737.4, 42.48)" filter="url(#Oxygen)">
      <text id="Oxygen-2" data-name="Oxygen" transform="translate(78.3 44)" fill="#6342e8" font-size="25" font-family="SegoeUI-Bold, Segoe UI" font-weight="700"><tspan x="0" y="0">Oxygen</tspan></text>
    </g>
  </g>
</svg>
