<svg xmlns="http://www.w3.org/2000/svg" width="37.607" height="33.727" viewBox="0 0 37.607 33.727">
  <path id="Path_2428" data-name="Path 2428" d="M20.907,34.63a3.882,3.882,0,0,1-2.208,0C13.537,32.868,2,25.515,2,13.052A9.923,9.923,0,0,1,11.9,3.1a9.819,9.819,0,0,1,7.9,3.988,10.519,10.519,0,0,1,1.888-1.927A9.588,9.588,0,0,1,27.708,3.1a9.923,9.923,0,0,1,9.9,9.952C37.607,25.515,26.071,32.868,20.907,34.63Z" transform="translate(-1 -2.1)" fill="none" stroke="#292d32" stroke-linecap="round" stroke-linejoin="round" stroke-width="2"/>
</svg>
