<svg xmlns="http://www.w3.org/2000/svg" xmlns:xlink="http://www.w3.org/1999/xlink" width="54.491" height="54.509" viewBox="0 0 54.491 54.509">
  <defs>
    <filter id="Path_2409" x="0" y="0" width="54.491" height="54.509" filterUnits="userSpaceOnUse">
      <feOffset dy="3" input="SourceAlpha"/>
      <feGaussianBlur stdDeviation="3" result="blur"/>
      <feFlood flood-color="#6342e8" flood-opacity="0.278"/>
      <feComposite operator="in" in2="blur"/>
      <feComposite in="SourceGraphic"/>
    </filter>
  </defs>
  <g transform="matrix(1, 0, 0, 1, 0, 0)" filter="url(#Path_2409)">
    <path id="Path_2409-2" data-name="Path 2409" d="M27.9,2h-15.3C5.961,2,2,5.961,2,12.606V27.885c0,6.663,3.961,10.624,10.606,10.624H27.885c6.645,0,10.606-3.961,10.606-10.606v-15.3C38.509,5.961,34.548,2,27.9,2ZM23.522,25.731a1.377,1.377,0,0,1,0,1.935,1.366,1.366,0,0,1-1.935,0l-6.444-6.444a1.377,1.377,0,0,1,0-1.935l6.444-6.444a1.368,1.368,0,0,1,1.935,1.935l-5.476,5.476Z" transform="translate(7 4)" fill="#6342e8"/>
  </g>
</svg>
