<svg xmlns="http://www.w3.org/2000/svg" width="20.384" height="16.573" viewBox="0 0 20.384 16.573">
  <path id="Path_2000" data-name="Path 2000" d="M190.162,5.656a8.38,8.38,0,0,1-2.4.658A4.194,4.194,0,0,0,189.6,4a8.358,8.358,0,0,1-2.656,1.015,4.182,4.182,0,0,0-7.126,3.814,11.875,11.875,0,0,1-4.775-1.268,11.872,11.872,0,0,1-3.845-3.1,4.188,4.188,0,0,0,1.294,5.584A4.169,4.169,0,0,1,170.6,9.52v.052a4.185,4.185,0,0,0,3.355,4.1,4.208,4.208,0,0,1-1.89.072,4.186,4.186,0,0,0,3.907,2.905,8.393,8.393,0,0,1-6.191,1.732,11.893,11.893,0,0,0,18.31-10.02c0-.18-.005-.362-.013-.54a8.487,8.487,0,0,0,2.087-2.165Z" transform="translate(-169.779 -3.688)" fill="#fff"/>
</svg>
