<svg xmlns="http://www.w3.org/2000/svg" width="20" height="20" viewBox="0 0 20 20">
  <path id="Path_1999" data-name="Path 1999" d="M96,2c2.717,0,3.056.01,4.122.06a7.367,7.367,0,0,1,2.428.465,4.876,4.876,0,0,1,1.772,1.153,4.914,4.914,0,0,1,1.153,1.772,7.387,7.387,0,0,1,.465,2.428c.047,1.066.06,1.405.06,4.122s-.01,3.056-.06,4.122a7.393,7.393,0,0,1-.465,2.428,5.106,5.106,0,0,1-2.925,2.925,7.387,7.387,0,0,1-2.428.465c-1.066.047-1.4.06-4.122.06s-3.056-.01-4.122-.06a7.393,7.393,0,0,1-2.428-.465,5.106,5.106,0,0,1-2.925-2.925,7.361,7.361,0,0,1-.465-2.428C86.013,15.056,86,14.717,86,12s.01-3.056.06-4.122a7.361,7.361,0,0,1,.465-2.428A5.106,5.106,0,0,1,89.45,2.525a7.361,7.361,0,0,1,2.428-.465C92.944,2.013,93.283,2,96,2Zm0,5a5,5,0,1,0,3.535,1.464A5,5,0,0,0,96,7Zm6.5-.25a1.25,1.25,0,1,0-.366.884A1.252,1.252,0,0,0,102.5,6.75ZM96,9a3,3,0,1,1-2.121.879A3,3,0,0,1,96,9Z" transform="translate(-86 -2)" fill="#fff"/>
</svg>
