<svg xmlns="http://www.w3.org/2000/svg" width="20" height="16" viewBox="0 0 20 16">
  <path id="Path_2001" data-name="Path 2001" d="M273.543,6.5A31.058,31.058,0,0,1,274,12a31.058,31.058,0,0,1-.457,5.5,2.811,2.811,0,0,1-1.938,2.022C269.9,20,264,20,264,20s-5.893,0-7.605-.476a2.811,2.811,0,0,1-1.938-2.022A31.058,31.058,0,0,1,254,12a31.058,31.058,0,0,1,.457-5.5,2.811,2.811,0,0,1,1.938-2.022C258.107,4,264,4,264,4s5.9,0,7.605.476A2.811,2.811,0,0,1,273.543,6.5ZM262,15.5l6-3.5-6-3.5Z" transform="translate(-254 -4)" fill="#fff"/>
</svg>
