<svg xmlns="http://www.w3.org/2000/svg" width="38.205" height="38.157" viewBox="0 0 38.205 38.157">
  <path id="Path_2411" data-name="Path 2411" d="M39.31,18.942l-2.9-2.9a3.525,3.525,0,0,1-.9-2.159V9.752a3.066,3.066,0,0,0-3.057-3.057H28.343a3.525,3.525,0,0,1-2.159-.9l-2.9-2.9a3.068,3.068,0,0,0-4.318,0L16.019,5.8a3.436,3.436,0,0,1-2.159.9H9.752A3.066,3.066,0,0,0,6.695,9.752V13.86a3.525,3.525,0,0,1-.9,2.159l-2.9,2.9a3.068,3.068,0,0,0,0,4.318l2.9,2.9a3.525,3.525,0,0,1,.9,2.159v4.108A3.066,3.066,0,0,0,9.752,35.47H13.86a3.525,3.525,0,0,1,2.159.9l2.9,2.9a3.068,3.068,0,0,0,4.318,0l2.9-2.9a3.525,3.525,0,0,1,2.159-.9h4.108a3.066,3.066,0,0,0,3.057-3.057V28.3a3.525,3.525,0,0,1,.9-2.159l2.9-2.9A2.978,2.978,0,0,0,39.31,18.942ZM13.459,15.369a1.911,1.911,0,1,1,1.911,1.911A1.916,1.916,0,0,1,13.459,15.369Zm2.923,12.477a1.43,1.43,0,0,1-2.025,0,1.442,1.442,0,0,1,0-2.025L25.821,14.357a1.432,1.432,0,0,1,2.025,2.025Zm10.452.9a1.911,1.911,0,1,1,1.892-1.911A1.9,1.9,0,0,1,26.833,28.744Z" transform="translate(-2.004 -2.004)" fill="#f05366"/>
</svg>
